<?xml version='1.0' encoding='utf-8'?>
<svg xmlns="http://www.w3.org/2000/svg" version="1.1" id="Layer_1" x="0px" y="0px" viewBox="0 0 4500 4500" style="enable-background:new 0 0 4500 4500;"> <style type="text/css"> .st0{fill:#F9F9F9;} .st1{fill:#A3D3A3;} .st2{fill:#89AD89;} .st3{fill:#E6E6E6;} .st4{fill:#5387AD;} .st5{fill:#4D4D4D;} </style> <rect class="st0" width="4500" height="4500"/> <g> <rect x="300" y="300" class="st1" width="3900" height="3900"/> <path class="st2" d="M3861.46,2681.27c-1.54-43.1-35.67-77.93-78.72-80.35l-33.19-1.86c-41.3-2.32-74.67-34.54-78.42-75.73 l-67.07-733.82c-3.05-33.36-25.74-61.67-57.65-71.89l-180.02-57.65c-34.88-11.17-58.41-43.78-57.99-80.41l6.89-618.88 c0.46-40.27-27.92-75.12-67.45-82.84l-361.1-70.52c-37.6-7.34-75.65-12.21-113.89-14.58l-471.38-29.19 c-40.88-2.54-73.9-34.38-77.9-75.15c-4.09-41.81-38.64-74.05-80.62-75.28l-518.34-15.1c-41.19-1.2-77.09,27.84-84.52,68.38 l-126.02,687.68c-5.92,32.32-9.27,65.07-10.01,97.92l-17.28,768.78c-0.85,38.09,5.41,76,18.49,111.77l339.57,929.17 c24.99,68.38,40.44,139.88,45.91,212.48l28.05,372.11c3.49,46.31,44.12,80.87,90.39,76.88l539.7-46.55 c40.54-3.5,72.65-35.72,76-76.27l19.15-231.62c3.52-42.62,38.69-75.68,81.46-76.56l699.7-14.38c30-0.61,57.35-17.28,71.65-43.66 l152.75-281.69c14.41-26.56,42.05-43.27,72.27-43.66l169.37-2.22c46.82-0.61,83.97-39.63,82.31-86.43L3861.46,2681.27z"/> <g> <path class="st3" d="M1835.36,1761.7h323.1c2.69,0,4.94-2.05,5.19-4.73l7.13-75.65c0.29-3.03-2.07-5.66-5.11-5.7l-190.98-2.91 c-3.05-0.05-5.41-2.69-5.11-5.73l13.59-137.36c0.29-2.98-1.97-5.59-4.96-5.72l-124.68-5.72c-2.81-0.13-5.22,2-5.44,4.81 l-17.93,233.09C1829.92,1759.11,1832.33,1761.7,1835.36,1761.7z"/> <path class="st3" d="M1711.74,2152.05l16.73-279.06c0.2-3.25-2.38-5.99-5.64-6.02l-133.84-0.89c-3.09-0.02-5.62,2.43-5.72,5.51 l-8.29,279.95c-0.09,3.2,2.47,5.85,5.68,5.85h125.41C1709.09,2157.39,1711.57,2155.05,1711.74,2152.05z"/> <path class="st3" d="M2683.8,2264.6l-5.4,71.61c-0.2,2.69,1.91,5,4.6,5.05l317.13,5.26c2.54,0.04,4.64-1.94,4.76-4.47l6.34-131.23 c0.13-2.55-1.82-4.73-4.37-4.91l-63.71-4.34c-2.54-0.18-4.76,1.72-4.98,4.26l-5.41,60.08c-0.24,2.49-2.37,4.37-4.88,4.26 l-239.21-9.91C2686.14,2260.16,2683.98,2262.07,2683.8,2264.6z"/> <path class="st3" d="M2212.68,2134.38l-3.27,189.71c-0.04,2.29,1.77,4.19,4.05,4.26l80.84,2.69c2.37,0.08,4.33-1.82,4.33-4.19 v-184.73c0-2.15-1.63-3.96-3.78-4.17l-77.57-7.67C2214.84,2130.04,2212.72,2131.93,2212.68,2134.38z"/> <path class="st3" d="M1814.84,2064.33l70.6-0.54c2.8-0.02,5.1-2.21,5.26-5l11.2-198.41c0.17-3.05-2.25-5.6-5.3-5.6h-68.3 c-2.79,0-5.1,2.16-5.28,4.94l-13.51,198.94C1809.3,2061.75,1811.76,2064.36,1814.84,2064.33z"/> <path class="st3" d="M1797.13,2327.56l348.66,5.03c2.55,0.04,4.64-2.02,4.64-4.57v-87.64c0-2.52-2.05-4.57-4.58-4.57h-341.88 c-2.38,0-4.37,1.83-4.56,4.2l-6.76,82.61C1792.44,2325.25,1794.49,2327.52,1797.13,2327.56z"/> <path class="st3" d="M1918.09,2513.92l59.03,1.52c2.75,0.07,4.81-2.51,4.13-5.18l-31.38-122.62c-0.46-1.8-2.07-3.07-3.91-3.12 l-140.25-3.56c-2.85-0.07-4.92,2.68-4.05,5.4l74.47,235.46c0.55,1.75,2.2,2.93,4.04,2.9l59.48-1.18c2.75-0.05,4.68-2.71,3.9-5.34 l-29.56-98.94C1913.2,2516.55,1915.26,2513.85,1918.09,2513.92z"/> <path class="st3" d="M1940.7,2818.63l48.73-1.16c2.5-0.06,4.24-2.48,3.53-4.86l-43.87-146.26c-0.47-1.6-1.95-2.69-3.61-2.69 h-50.96c-2.55,0-4.37,2.47-3.61,4.9l46.08,147.43C1937.51,2817.59,1939.02,2818.67,1940.7,2818.63z"/> <path class="st3" d="M2114.39,3164.82l-83.2-283.75c-0.51-1.76-2.11-2.98-3.94-3l-69.5-0.95c-2.83-0.04-4.88,2.68-4.05,5.39 l87.22,285.66c0.55,1.78,2.2,2.98,4.05,2.96l65.46-0.95C2113.21,3170.13,2115.18,3167.47,2114.39,3164.82z"/> <path class="st3" d="M2550.53,3172.3l-19.42-109.05c-0.34-1.86-1.74-3.35-3.57-3.8l-89.15-21.9c-1.74-0.43-3.11-1.8-3.52-3.57 l-34.83-151.18c-0.5-2.13-2.37-3.65-4.54-3.71l-78.19-1.9c-3.06-0.08-5.4,2.69-4.81,5.7l56.97,291.17 c0.44,2.25,2.41,3.86,4.7,3.86h171.65C2548.8,3177.91,2551.06,3175.22,2550.53,3172.3z"/> <path class="st3" d="M2087.97,3530.77l97.36-7.17c3.09-0.22,5.41-2.88,5.22-5.96l-14.18-235.54c-0.17-2.94-2.59-5.26-5.55-5.3 l-96.54-1.46c-3.27-0.05-5.89,2.68-5.72,5.95l13.35,244.17C2082.1,3528.61,2084.82,3531,2087.97,3530.77z"/> <path class="st3" d="M2224.45,3398.09l90.87-6.68c3.71-0.27,6.51-3.49,6.26-7.2l-3.85-59.93c-0.24-3.66-3.35-6.47-7.01-6.34 l-90.87,3.25c-3.82,0.14-6.76,3.39-6.54,7.2l3.86,63.35C2217.4,3395.51,2220.68,3398.37,2224.45,3398.09z"/> <path class="st3" d="M2167.95,3080.56l-19.19-69.68c-0.5-1.8-2.15-3.06-4.03-3.06h-49.91c-2.8,0-4.8,2.71-3.99,5.39l22.16,72.84 c0.56,1.86,2.34,3.08,4.28,2.96l46.93-3.17C2166.84,3085.66,2168.64,3083.11,2167.95,3080.56z"/> <path class="st3" d="M2142.79,3170.08l48.14,0.48c3.32,0.03,5.73-3.12,4.84-6.32l-12.05-43.27c-0.61-2.16-2.59-3.66-4.85-3.64 l-49.77,0.47c-3.36,0.04-5.72,3.32-4.7,6.51l13.69,42.32C2138.76,3168.67,2140.65,3170.06,2142.79,3170.08z"/> <path class="st3" d="M1962.03,3261.11l-82.07,11.85c-3.15,0.46-5.4,3.29-5.14,6.46l22.56,263.97c0.27,3.3,3.18,5.75,6.47,5.48 l77.18-6.28c3.27-0.27,5.73-3.11,5.52-6.39l-17.67-269.54C1968.65,3263.17,1965.5,3260.62,1962.03,3261.11z"/> <path class="st3" d="M2350.6,1574.46l-11.54,61.24c-0.43,2.3,1.03,4.53,3.32,5.05l307.24,70.03c2.6,0.59,5.11-1.28,5.31-3.94 l4.29-59.83c0.16-2.13-1.26-4.05-3.34-4.54l-299.99-71.45C2353.47,1570.45,2351.07,1572.02,2350.6,1574.46z"/> <path class="st3" d="M2253.77,1476.28l82.97,17.23c2.89,0.6,5.66-1.45,5.94-4.4l12.02-130.16c0.27-2.92,3.01-4.97,5.9-4.41 l76.68,14.96c2.47,0.48,4.19,2.74,3.99,5.25l-10.74,138.76c-0.2,2.49,1.49,4.73,3.92,5.24l59.54,12.35 c2.9,0.61,5.68-1.46,5.94-4.42l16.83-191.76c0.21-2.48-1.44-4.73-3.87-5.28l-239.03-52.84c-2.9-0.64-5.73,1.41-6,4.37 l-18.02,189.78C2249.6,1473.47,2251.3,1475.77,2253.77,1476.28z"/> <path class="st3" d="M2419.55,1711.14l-55.36-10.1c-2.5-0.45-4.87,1.24-5.26,3.73l-13.51,86.96c-0.38,2.44,1.28,4.73,3.71,5.13 l283.04,46.52c2.54,0.41,4.9-1.37,5.21-3.91l10.69-90.53c0.29-2.4-1.37-4.6-3.77-4.98l-78.89-12.27c-2.49-0.39-4.8,1.33-5.15,3.81 l-4.88,34.61c-0.35,2.49-2.68,4.21-5.17,3.81l-127.62-20.46c-2.41-0.39-4.07-2.62-3.74-5.04l4.36-32.25 C2423.51,1713.79,2421.9,1711.57,2419.55,1711.14z"/> <path class="st3" d="M2221.09,1874.88l-4.59,180.69c-0.05,2.05,1.45,3.81,3.48,4.07l72.13,9.52c2.39,0.31,4.53-1.55,4.53-3.96 v-105.13c0-2.43,2.15-4.29,4.55-3.96l162.34,22.42c2.39,0.33,4.54-1.54,4.54-3.96v-59.91c0-1.96-1.41-3.62-3.33-3.95 l-238.98-39.68C2223.34,1870.64,2221.15,1872.45,2221.09,1874.88z"/> <path class="st3" d="M2737.62,1555.44l113.66,21.26c3.06,0.58,5.94-1.6,6.23-4.7l6.5-69.59c0.29-3.07,3.13-5.24,6.16-4.71 l158.41,27.96c3.02,0.53,5.86-1.62,6.16-4.66l8.97-88.65c0.26-2.69-1.54-5.17-4.2-5.7l-282.44-57.46 c-3.06-0.62-5.99,1.54-6.3,4.66l-17.42,175.89C2733.06,1552.46,2734.92,1554.94,2737.62,1555.44z"/> <path class="st3" d="M2788.86,1187.52l98.46,19.8c3.14,0.63,6.16-1.54,6.57-4.71l10.32-80c0.41-3.13,3.35-5.29,6.46-4.73 l147.45,26.63c3.27,0.59,6.3-1.8,6.5-5.11l3.54-60.65c0.16-2.71-1.67-5.13-4.33-5.72l-250-54.71c-3.13-0.69-6.19,1.43-6.64,4.61 l-22.69,158.38C2784.07,1184.23,2786,1186.95,2788.86,1187.52z"/> <path class="st3" d="M2776.67,1297.66l272.24,56.42c3.48,0.72,6.8-1.79,7.05-5.34l10.01-139.17c0.22-2.99-1.84-5.66-4.79-6.21 l-59-10.91c-3.44-0.63-6.67,1.85-6.93,5.34l-3.87,51.24c-0.26,3.47-3.45,5.95-6.88,5.35l-194.88-34.37 c-3.23-0.57-6.3,1.61-6.83,4.85l-10.74,66.1C2771.56,1294.07,2773.58,1297.02,2776.67,1297.66z"/> <path class="st3" d="M1738.53,1763.46l17.71-241.42c0.24-3.29-2.25-6.15-5.53-6.37l-47.25-3.22c-3.24-0.22-6.06,2.2-6.33,5.43 l-13.76,163.32c-0.26,3.1-2.86,5.47-5.98,5.45l-109.07-0.88c-3.31-0.03-6,2.64-6,5.94v71.17c0,3.28,2.67,5.94,5.95,5.94 l164.32,0.14C1735.7,1768.98,1738.29,1766.57,1738.53,1763.46z"/> <path class="st3" d="M2814.27,3175.87l69.42,1.89c2.85,0.08,5.05-2.49,4.54-5.3l-25.49-140.18c-0.39-2.14-2.25-3.69-4.42-3.69 l-67.66-0.01c-2.79,0-4.9,2.51-4.43,5.26l23.73,138.29C2810.32,3174.25,2812.13,3175.81,2814.27,3175.87z"/> <path class="st3" d="M2784.67,2991.88l88.09-2.38c2.93-0.08,5.09-2.75,4.56-5.62l-19.21-105.69c-0.42-2.28-2.42-3.94-4.75-3.92 l-87.26,0.8c-2.94,0.03-5.17,2.68-4.67,5.58l18.42,107.26C2780.24,2990.25,2782.31,2991.94,2784.67,2991.88z"/> <path class="st3" d="M2715.45,2570.92l132.02,2.26c2.64,0.05,4.7-2.26,4.34-4.88l-20.3-150.4c-0.29-2.11-2.07-3.69-4.19-3.73 l-134.94-2.72c-2.67-0.06-4.75,2.31-4.33,4.96l23.2,150.87C2711.58,2569.34,2713.34,2570.89,2715.45,2570.92z"/> <path class="st3" d="M2759.31,2811.1l48.61-0.37c2.81-0.02,4.96-2.53,4.55-5.32l-29.57-198.68c-0.33-2.22-2.21-3.9-4.47-3.95 l-49.7-1.22c-2.89-0.08-5.14,2.49-4.71,5.34l30.66,200.26C2755.04,2809.44,2757.01,2811.12,2759.31,2811.1z"/> <path class="st3" d="M2034.22,2813.82l95.89-0.41c2.85-0.01,4.88-2.79,4.03-5.51l-19.89-63.73c-0.55-1.78-2.2-2.99-4.05-2.99 l-48.51,0.03c-1.86,0.01-3.51-1.2-4.05-2.98l-53.49-171.37c-0.55-1.73-2.12-2.92-3.94-2.98l-42.19-1.22 c-2.93-0.08-5.06,2.73-4.19,5.52l76.32,242.67C2030.7,2812.62,2032.35,2813.83,2034.22,2813.82z"/> <path class="st3" d="M3305.07,3064.05c-1.86-1.39-4.5-1.03-5.92,0.82l-137.02,177.35c-1.43,1.84-1.11,4.49,0.72,5.94l67.63,54.2 c1.79,1.44,4.38,1.2,5.89-0.52l49.19-56.36c1.6-1.82,1.35-4.61-0.54-6.13l-34.55-28c-1.77-1.43-2.11-4-0.77-5.83l83.65-115.15 c1.37-1.9,0.97-4.54-0.9-5.94L3305.07,3064.05z"/> <path class="st3" d="M2897.94,2805.4l-22.17-147.78c-0.34-2.23-2.22-3.9-4.47-3.95l-49.7-1.22c-2.89-0.07-5.14,2.49-4.7,5.35 l23.25,149.37c0.35,2.27,2.31,3.94,4.62,3.92l48.61-0.37C2896.21,2810.71,2898.36,2808.2,2897.94,2805.4z"/> <path class="st3" d="M2491.72,2978.9l209.01-4.31c2.51-0.05,4.41-2.3,4.02-4.79l-13.65-88.15c-0.33-2.04-2.09-3.53-4.15-3.52 l-211.21,1.9c-2.58,0.03-4.5,2.34-4.05,4.87l15.86,90.57C2487.9,2977.49,2489.68,2978.95,2491.72,2978.9z"/> <path class="st3" d="M2715.33,3026.18l-81.74,2.24c-3.44,0.1-6.04,3.13-5.61,6.54l8.03,63.81c0.43,3.4-2.16,6.43-5.58,6.53 l-47.02,1.45c-3.48,0.11-6.08,3.23-5.57,6.68l9.57,63.52c0.43,2.84,2.88,4.94,5.75,4.94h142.59c3.54,0,6.25-3.12,5.77-6.62 l-20.27-144.08C2720.84,3028.25,2718.29,3026.1,2715.33,3026.18z"/> <path class="st3" d="M2323.59,3429.87l-83.35,5.13c-3.3,0.2-5.79,3.08-5.52,6.38l7.32,89.54c0.26,3.23-2.12,6.08-5.35,6.36 l-148.86,13.4c-3.24,0.29-5.64,3.15-5.35,6.4l6.06,69.68c0.29,3.33,3.28,5.75,6.6,5.35l243.97-29.97c3.17-0.39,5.44-3.22,5.15-6.4 l-14.44-160.52C2329.54,3432.05,2326.78,3429.68,2323.59,3429.87z"/> <path class="st3" d="M2217.32,3174.23l84.33,2.58c3.13,0.09,5.52-2.76,4.88-5.83L2246.12,2882c-0.48-2.26-2.49-3.88-4.8-3.85 l-147.33,1.78c-3.18,0.03-5.45,3.07-4.6,6.12l22.65,81.86c0.58,2.05,2.42,3.49,4.55,3.54l43.71,1.07 c2.18,0.05,4.05,1.56,4.58,3.68l47.91,194.35C2213.29,3172.67,2215.15,3174.17,2217.32,3174.23z"/> <path class="st3" d="M2383.27,2509.73l142.05,1.58c2.13,0.03,3.96,1.54,4.37,3.64l14.07,71.95c0.42,2.14,2.3,3.67,4.47,3.64 l92.64-1.28c2.75-0.04,4.81-2.5,4.37-5.21l-28.2-175.59c-0.34-2.15-2.18-3.74-4.36-3.78l-250.65-4.49 c-2.89-0.05-5.07,2.6-4.47,5.43l21.36,100.54C2379.36,2508.22,2381.16,2509.7,2383.27,2509.73z"/> <path class="st3" d="M2693.64,3268.18l-301.59,0.83c-3.56,0.01-6.36,3.03-6.09,6.58l14.67,195.14c0.25,3.36,3.18,5.89,6.54,5.65 l64.95-4.56c3.36-0.24,5.9-3.15,5.68-6.52l-7.34-109.58c-0.24-3.53,2.56-6.53,6.09-6.54l222.96-0.78 c3.58-0.01,6.38-3.08,6.08-6.64l-5.83-67.98C2699.49,3270.6,2696.84,3268.17,2693.64,3268.18z"/> <path class="st3" d="M3059.21,3272.05l-305.13-2.97c-3.56-0.03-6.38,2.96-6.13,6.51l6.46,93.7c0.22,3.16,2.81,5.62,5.99,5.66 l305.97,4.17c3.57,0.05,6.42-2.98,6.15-6.55l-7.3-94.9C3064.97,3274.53,3062.37,3272.09,3059.21,3272.05z"/> <path class="st3" d="M1750.12,2895.57l99.06-33.29c3.28-1.1,5.09-4.6,4.08-7.91l-129.74-427.9c-1.02-3.35-4.54-5.26-7.9-4.28 l-105.39,30.55c-3.45,1-5.4,4.64-4.32,8.07l136.07,430.62C1743.07,2894.85,1746.73,2896.71,1750.12,2895.57z"/> <path class="st3" d="M1938.96,3130.18l-71.06-209.97c-0.95-2.81-3.99-4.34-6.81-3.43l-118.52,37.88 c-2.86,0.92-4.43,3.98-3.53,6.83l68.61,215.04c0.93,2.92,4.11,4.49,7,3.47l120.99-42.95 C1938.44,3136.05,1939.92,3132.99,1938.96,3130.18z"/> <path class="st3" d="M3030.61,1592.72c0.26-3.04-1.92-5.74-4.94-6.14l-88.03-11.69c-3.26-0.43-6.2,1.96-6.45,5.22l-21.93,284.93 c-0.22,3.02,1.94,5.69,4.93,6.09l85.9,11.66c3.23,0.44,6.17-1.92,6.45-5.17L3030.61,1592.72z"/> <path class="st3" d="M3105.34,1894.14l188.77,31.68c3.24,0.54,6.24-1.81,6.47-5.07l8.45-114.13c0.21-2.89-1.83-5.47-4.71-5.91 l-102.28-15.81c-2.89-0.45-4.94-3.05-4.7-5.97l14.24-168.34c0.25-2.99-1.91-5.64-4.89-5.99l-77.24-9.15 c-3.14-0.37-5.95,1.94-6.2,5.09l-22.54,287.68C3100.49,1891.09,3102.51,1893.66,3105.34,1894.14z"/> <path class="st3" d="M2143.6,2393.1l-118.18-4.08c-2.56-0.09-4.46,2.35-3.74,4.8l18.95,65.19c0.35,1.22,1.31,2.17,2.51,2.54 l32.44,9.87c1.22,0.37,2.16,1.33,2.51,2.55l11.92,40.98c0.41,1.39-0.03,2.89-1.11,3.86l-22.74,20.23 c-1.09,0.96-1.52,2.47-1.11,3.86l18.6,63.96c0.48,1.65,2.03,2.77,3.75,2.7l102.94-3.94c2.34-0.09,4.04-2.3,3.52-4.59 l-46.72-205.01C2146.75,2394.36,2145.3,2393.16,2143.6,2393.1z"/> <path class="st3" d="M2200.63,2663.76l-68.8,1.96c-2.72,0.07-4.66,2.67-3.95,5.3l38.77,144.08c0.5,1.83,2.15,3.11,4.04,3.12 l63.9,0.45c2.73,0.01,4.75-2.51,4.15-5.17l-33.89-146.48C2204.4,2665.07,2202.63,2663.7,2200.63,2663.76z"/> <path class="st3" d="M2319.89,2400l-94.86-2.41c-2.79-0.07-4.9,2.47-4.33,5.19l40.58,195.07c0.43,2.07,2.29,3.52,4.38,3.43 l96.54-3.77c2.69-0.1,4.63-2.62,4.04-5.25l-42.25-188.9C2323.56,2401.44,2321.88,2400.05,2319.89,2400z"/> <path class="st3" d="M2527.22,1918.6c-2.67-0.43-5.11,1.58-5.22,4.28l-6.42,167.74c-0.09,2.35,1.65,4.38,3.98,4.66l92.4,10.89 c2.59,0.31,4.9-1.64,5.04-4.24l8.57-163.49c0.12-2.31-1.52-4.33-3.81-4.7L2527.22,1918.6z"/> <path class="st3" d="M2693.49,1946.99l-9.21,257.99c-0.08,2.19,1.61,4.05,3.81,4.17l103.74,5.9c2.21,0.12,4.11-1.55,4.26-3.75 l17.25-245.91c0.14-2.09-1.32-3.94-3.39-4.27l-111.79-17.96C2695.78,1942.76,2693.58,1944.56,2693.49,1946.99z"/> <path class="st3" d="M3227.76,2951.35c2.64-0.2,4.62-2.53,4.38-5.18l-6.36-70.37c-0.21-2.48-2.32-4.37-4.8-4.33l-96.08,1.48 c-2.8,0.05-4.96,2.48-4.66,5.26l8.02,76.07c0.26,2.56,2.52,4.43,5.09,4.24L3227.76,2951.35z"/> <path class="st3" d="M3559.18,2901.57l-135.51-9.68c-1.44-0.1-2.84,0.54-3.69,1.72l-92.73,127.85c-1.48,2.04-0.84,4.9,1.36,6.12 l39.09,21.69c1.83,1.01,4.13,0.52,5.39-1.16l55.56-74.57c0.85-1.14,2.22-1.77,3.64-1.68l122.43,8.24 c2.33,0.16,4.33-1.62,4.46-3.94l3.87-70.17C3563.19,2903.69,3561.46,2901.73,3559.18,2901.57z"/> <path class="st3" d="M3064.37,3039.33h-60.45c-2.54,0-4.5,2.26-4.12,4.78l11.76,79.95c0.37,2.52-1.58,4.78-4.13,4.78l-61.72,0.06 c-2.52,0-4.46,2.22-4.12,4.73l5.18,38.59c0.27,2.04,2,3.58,4.07,3.61l126.43,2.01c2.48,0.04,4.46-2.11,4.21-4.58l-12.96-130.17 C3068.3,3040.96,3066.51,3039.33,3064.37,3039.33z"/> <path class="st3" d="M2965.11,3039.37l-39.69-0.58c-2.6-0.03-4.6,2.3-4.17,4.87l7.44,44.29c0.34,2.01,2.08,3.48,4.12,3.48h39.17 c2.56,0,4.51-2.3,4.12-4.83l-6.93-43.71C2968.85,3040.89,2967.14,3039.41,2965.11,3039.37z"/> <path class="st3" d="M3189.62,3026.45l-4.11-50.08c-0.25-3.07-2.93-5.35-5.99-5.11l-42.61,3.28c-3.11,0.24-5.43,3-5.13,6.11 l9.14,94.06c0.48,4.92,6.64,6.84,9.84,3.05l36.19-42.93C3188.92,3032.5,3189.87,3029.49,3189.62,3026.45z"/> <path class="st3" d="M3065.49,2979.37l-10.91-103.79c-0.25-2.37-2.25-4.17-4.63-4.17h-136.7c-2.85,0-5.02,2.53-4.6,5.35 l16.23,108.35c0.35,2.34,2.41,4.05,4.77,3.96l131.38-4.56C3063.73,2984.42,3065.78,2982.05,3065.49,2979.37z"/> <path class="st3" d="M3330.31,2485.47l-3.06-57.21c-0.1-2.03-1.78-3.64-3.82-3.66l-232.67-3.11c-2.37-0.03-4.2,2.04-3.9,4.38 l7.56,57.8c0.25,1.91,1.87,3.35,3.79,3.37l228.19,2.52C3328.64,2489.58,3330.43,2487.7,3330.31,2485.47z"/> <path class="st3" d="M3661.76,2717.71c-0.17-2.48-2.13-4.45-4.6-4.65l-110.77-8.84c-2.45-0.19-4.38-2.12-4.59-4.55l-5.13-57.74 c-0.27-3.08,2.28-5.67,5.36-5.44l47.91,3.54c3.11,0.24,5.68-2.41,5.35-5.51l-5.15-49.78c-0.25-2.4-2.17-4.28-4.58-4.48 l-135.79-11.2c-3.09-0.26-5.66,2.33-5.4,5.41l17.75,212.24c0.21,2.44,2.14,4.38,4.58,4.58l195.53,16.47 c3.06,0.26,5.64-2.28,5.43-5.34L3661.76,2717.71z"/> <path class="st3" d="M3123.48,2818.37h228.21c2.45,0,4.37-2.09,4.19-4.53l-12.22-157.51c-0.17-2.18-1.98-3.86-4.16-3.88 l-65.04-0.29c-2.43-0.01-4.37,2.04-4.21,4.47l3.32,52.38c0.16,2.42-1.75,4.47-4.17,4.47l-155.85,0.31 c-2.48,0.01-4.42,2.15-4.17,4.63l9.93,96.18C3119.53,2816.74,3121.34,2818.37,3123.48,2818.37z"/> <path class="st3" d="M1883.26,1196.22h169.42c4.63,0,8.48-3.6,8.78-8.23l2.34-35.77c0.33-4.98-3.56-9.23-8.54-9.37l-85.16-2.34 c-5-0.14-8.87-4.39-8.54-9.37l4.13-63.33c0.3-4.63,4.15-8.23,8.79-8.23l87.12,0.01c4.64,0,8.48-3.6,8.79-8.23l3.91-59.99 c0.33-5.03-3.62-9.31-8.66-9.37l-170.56-2.35c-4.7-0.07-8.63,3.58-8.91,8.28l-11.71,198.97 C1874.18,1191.96,1878.2,1196.22,1883.26,1196.22z"/> <path class="st3" d="M3078.62,2355.83h168.3c2.51,0,4.49-2.16,4.24-4.67l-3.98-40.93c-0.2-2.1-1.91-3.73-4.02-3.84l-109.55-5.65 c-2.28-0.12-4.05-2-4.04-4.28l0.98-153.87c0.01-2.47,2.13-4.41,4.59-4.22l75.82,5.95c2.58,0.2,4.73-1.92,4.59-4.5l-6.59-110.93 c-0.12-1.99-1.6-3.63-3.56-3.95l-121.95-20.02c-2.58-0.43-4.92,1.54-4.96,4.15l-4.15,342.45 C3074.33,2353.89,3076.24,2355.83,3078.62,2355.83z"/> <path class="st3" d="M1606.94,1429.96l128.81,8.15c7.18,0.46,13.37-4.99,13.82-12.16l42.4-658.79 c0.46-7.23-5.05-13.45-12.28-13.85l-112.26-6.31c-7.01-0.39-13.08,4.85-13.71,11.84l-58.95,656.95 C1594.14,1423.1,1599.63,1429.5,1606.94,1429.96z"/> <path class="st3" d="M2113.48,1037.75l44.53,2.53c5.3,0.3,9.14,5.15,8.25,10.37l-21.76,126.42c-0.89,5.17,2.88,9.99,8.11,10.36 l45.54,3.27c4.53,0.32,8.55-2.81,9.36-7.26l35.2-192.28c0.98-5.36-3.06-10.33-8.5-10.47l-116.34-2.98 c-4.68-0.12-8.66,3.43-9.06,8.1l-3.68,42.3C2104.7,1033.11,2108.48,1037.47,2113.48,1037.75z"/> <path class="st3" d="M2550.53,1277.3l147.57,26.49c3.36,0.6,6.55-1.73,7.01-5.11l8.23-61.58c0.42-3.2-1.77-6.18-4.96-6.71 l-81.8-13.73c-3.19-0.53-5.38-3.49-4.96-6.68l17.6-136c0.44-3.44-2.11-6.55-5.57-6.76l-51.4-3.22c-3.11-0.2-5.85,2.02-6.32,5.1 l-30.29,201.42C2545.17,1273.71,2547.33,1276.73,2550.53,1277.3z"/> <path class="st3" d="M2788.1,1627.24l-55.42-9.02c-2.69-0.44-5.22,1.46-5.55,4.18l-24.17,204.24c-0.29,2.53,1.43,4.85,3.92,5.3 l149.86,26.9c2.79,0.5,5.39-1.5,5.64-4.32l9.08-104.53c0.22-2.5-1.52-4.75-3.99-5.16l-79.44-13.33c-2.46-0.42-4.2-2.66-3.99-5.15 l8.07-93.95C2792.34,1629.89,2790.59,1627.64,2788.1,1627.24z"/> <path class="st3" d="M1909.34,889.26l144.57,4.87c3.98,0.13,7.34-2.9,7.61-6.87l7.44-106.46c0.29-4.14-2.89-7.7-7.05-7.89 l-76.69-3.3c-4.08-0.18-7.23-3.63-7.05-7.72l2.29-49.17c0.18-4.03-2.9-7.47-6.93-7.71l-53.3-3.2c-4.07-0.24-7.57,2.86-7.81,6.93 l-10.21,172.71C1901.96,885.59,1905.18,889.12,1909.34,889.26z"/> <path class="st3" d="M2303.46,1152.65l92.47,15.15c5.02,0.82,9.8-2.47,10.82-7.45l32.71-160.47c1.14-5.62-2.93-10.96-8.66-11.34 l-91.42-6.11c-4.66-0.31-8.85,2.83-9.87,7.39l-33.76,151.42C2294.57,1146.55,2298.1,1151.77,2303.46,1152.65z"/> <path class="st3" d="M2660.32,1196.7l48.9,5.61c2.73,0.31,5.24-1.57,5.69-4.28l32.17-192.25c0.51-3.03-1.74-5.85-4.81-6.02 l-53.36-3.08c-2.68-0.15-5.04,1.77-5.41,4.42l-27.7,189.71C2655.36,1193.7,2657.42,1196.37,2660.32,1196.7z"/> <path class="st3" d="M2681.51,1363.99l-43.47-7.8c-2.24-0.4-4.33,1.2-4.55,3.45l-18.49,194.67c-0.18,1.91,1.06,3.66,2.92,4.13 l44.04,11.06c2.31,0.58,4.59-1.03,4.81-3.41l17.93-197.92C2684.87,1366.15,2683.5,1364.34,2681.51,1363.99z"/> <path class="st3" d="M3001.47,1991.51l-43.92-7.87c-2.18-0.39-4.21,1.25-4.28,3.47l-4.56,151.1c-0.07,1.94,1.43,3.59,3.36,3.74 l45.19,3.43c2.08,0.16,3.86-1.46,3.91-3.54l3.3-146.66C3004.51,1993.38,3003.24,1991.82,3001.47,1991.51z"/> <path class="st3" d="M2896.38,1976.81l-42.95-7.7c-2.49-0.45-4.79,1.44-4.83,3.97l-4.64,251.55c-0.04,2.18,1.62,4.01,3.79,4.17 l44.26,3.36c2.35,0.18,4.38-1.67,4.42-4.04l3.33-247.21C2899.79,1978.91,2898.37,1977.17,2896.38,1976.81z"/> <path class="st3" d="M3296.36,2038.85l-39.83-4.64c-3.41-0.4-6.36,2.42-6.09,5.85l24.05,314.7c0.22,2.85,2.6,5.05,5.47,5.05h41.16 c3.2,0,5.72-2.73,5.45-5.92l-25.39-310.06C3300.98,2041.24,3298.95,2039.15,3296.36,2038.85z"/> <path class="st3" d="M3428.47,2273.66l76.35-2.63c2.82-0.1,4.98-2.54,4.72-5.36l-20.83-226.72c-0.22-2.46-2.25-4.37-4.72-4.45 l-75.07-2.63c-2.94-0.1-5.31,2.39-5.06,5.32l19.55,231.97C3423.63,2271.77,3425.86,2273.74,3428.47,2273.66z"/> <path class="st3" d="M3505.3,2385.6l-8.63-51.19c-0.39-2.35-2.41-4.09-4.79-4.14l-56.23-1.15c-2.93-0.06-5.28,2.42-5.05,5.35 l12.25,157.44c0.2,2.62,2.42,4.64,5.05,4.58l136.49-2.77c2.88-0.06,5.1-2.54,4.84-5.41l-8.45-95.28c-0.24-2.6-2.43-4.58-5.05-4.53 l-65.46,1.24C3507.82,2389.79,3505.7,2388.03,3505.3,2385.6z"/> <path class="st3" d="M2588.14,1045.5l50.67,5.81c2.21,0.26,4.26-1.18,4.77-3.34l10.21-42.77c0.64-2.66-1.28-5.25-4.02-5.41 l-54.63-3.15c-2.26-0.13-4.25,1.47-4.6,3.71l-6.25,40.11C2583.91,1042.92,2585.65,1045.21,2588.14,1045.5z"/> <path class="st3" d="M2542.69,1397.45l58.21,10.46c2.66,0.48,5.13-1.45,5.34-4.14l3.49-47.84c0.17-2.32-1.45-4.4-3.75-4.81 l-57.53-10.01c-2.63-0.46-5.07,1.43-5.31,4.07l-4.16,47.4C2538.76,1394.93,2540.37,1397.04,2542.69,1397.45z"/> <path class="st3" d="M2405.18,2059.33c2.5,0.27,4.67-1.69,4.68-4.2l0.09-49.12c0-2.18-1.65-4.02-3.83-4.22l-59.25-5.69 c-2.48-0.24-4.63,1.72-4.63,4.22v48.46c0,2.16,1.62,3.98,3.78,4.21L2405.18,2059.33z"/> <path class="st3" d="M2297.6,1225l180.86,29.76c3.78,0.62,7.35-1.96,7.94-5.74l39.22-247.71c0.65-4.05-2.37-7.77-6.46-7.97 l-39.62-2.01c-3.51-0.17-6.59,2.31-7.15,5.77l-31.62,191.5c-0.61,3.75-4.16,6.29-7.9,5.69l-125.36-20.08 c-3.65-0.58-7.11,1.8-7.86,5.42l-7.68,37.16C2291.17,1220.63,2293.73,1224.35,2297.6,1225z"/> <path class="st3" d="M1857.98,1410.81l-3.65,34.35c-0.26,2.5,1.62,4.72,4.15,4.85l188.47,9.4c2.3,0.12,4.29-1.56,4.58-3.85 l4.25-34.2c0.31-2.52-1.58-4.79-4.13-4.92l-189.07-9.56C1860.24,1406.77,1858.23,1408.49,1857.98,1410.81z"/> <path class="st3" d="M2151.67,1907.25v-43.62c0-2.14-1.73-3.86-3.86-3.86h-192.26c-2.04,0-3.73,1.6-3.85,3.64l-2.47,43.79 c-0.13,2.21,1.63,4.07,3.86,4.07l194.72-0.16C2149.94,1911.1,2151.67,1909.38,2151.67,1907.25z"/> <path class="st3" d="M2405.96,2288.61l0.42,43.24c0.03,2.24,1.8,4.07,4.05,4.15l193.92,6.59c2.37,0.08,4.33-1.82,4.33-4.19v-42.97 c0-2.26-1.78-4.11-4.04-4.19l-194.34-6.86C2407.91,2284.3,2405.95,2286.22,2405.96,2288.61z"/> <path class="st3" d="M2097.83,1123.45c9.81,0,17.77-7.97,17.77-17.78c0-9.82-7.97-17.79-17.77-17.79 c-9.82,0-17.79,7.97-17.79,17.79C2080.05,1115.49,2088.01,1123.45,2097.83,1123.45z"/> <path class="st3" d="M2597.45,1477.34c0-15.02-12.19-27.2-27.2-27.2c-15.03,0-27.2,12.18-27.2,27.2c0,15.03,12.18,27.2,27.2,27.2 C2585.26,1504.55,2597.45,1492.37,2597.45,1477.34z"/> <path class="st3" d="M2101.3,1467.75l74.72,3.13c2.55,0.11,4.73-1.8,4.98-4.34l18.4-189.56c0.27-2.83-1.95-5.28-4.79-5.28h-197.45 c-2.48,0-4.56,1.89-4.8,4.36l-7.22,76.58c-0.26,2.83,1.96,5.27,4.8,5.27h107.47c2.77,0,4.97,2.32,4.81,5.08l-5.53,99.68 C2096.55,1465.35,2098.62,1467.64,2101.3,1467.75z"/> <path class="st3" d="M2221.09,1772.86l51.74,7.59c2.72,0.39,5.22-1.54,5.52-4.26l24.07-216.35c0.26-2.45-1.33-4.71-3.73-5.26 l-48.86-11.3c-2.8-0.65-5.55,1.28-5.9,4.13l-26.94,220.07C2216.67,1770.09,2218.49,1772.48,2221.09,1772.86z"/> <path class="st3" d="M2054.93,1639.82h109.17c2.11,0,3.87-1.58,4.12-3.67l12.14-105.12c0.27-2.46-1.65-4.62-4.12-4.62h-110.41 c-2.12,0-3.9,1.6-4.12,3.71l-10.91,105.12C2050.55,1637.7,2052.48,1639.82,2054.93,1639.82z"/> <path class="st3" d="M1810.75,2208.93h62.5c2.37,0,4.34-1.81,4.55-4.17l6.83-77.48c0.24-2.67-1.87-4.98-4.55-4.98h-62.88 c-2.38,0-4.36,1.82-4.56,4.19l-6.43,77.48C1805.98,2206.64,1808.08,2208.93,1810.75,2208.93z"/> <path class="st3" d="M1930.25,2122.3c-2.38,0-4.36,1.82-4.55,4.19l-6.45,77.48c-0.22,2.67,1.88,4.96,4.55,4.96h35.72 c2.37,0,4.34-1.81,4.55-4.17l6.83-77.48c0.24-2.67-1.87-4.98-4.55-4.98H1930.25z"/> <path class="st3" d="M2332.99,2244.56c-2.31,0-4.2,1.88-4.2,4.19V2327c0,2.31,1.88,4.19,4.2,4.19h36.5c2.3,0,4.17-1.86,4.19-4.17 l0.39-78.25c0.01-2.31-1.87-4.2-4.19-4.2H2332.99z"/> <path class="st3" d="M3163.64,2187.19c-2.25,0-4.07,1.82-4.07,4.07v78.49c0,2.25,1.82,4.07,4.07,4.07h36.75 c2.24,0,4.05-1.8,4.07-4.05l0.39-78.49c0.01-2.25-1.82-4.09-4.07-4.09H3163.64z"/> <path class="st3" d="M3117.47,2638.14h36.39c2.49,0,4.43-2.13,4.21-4.6l-9.12-106.62c-0.2-2.2-2.03-3.88-4.22-3.88h-36.78 c-2.48,0-4.43,2.14-4.21,4.61l9.52,106.63C3113.45,2636.47,3115.28,2638.14,3117.47,2638.14z"/> <path class="st3" d="M3230.95,2560.55h-36.78c-2.5,0-4.45,2.13-4.22,4.61l9.52,106.63c0.2,2.18,2.03,3.86,4.22,3.86h36.37 c2.48,0,4.43-2.13,4.22-4.6l-9.13-106.63C3234.98,2562.23,3233.15,2560.55,3230.95,2560.55z"/> <path class="st3" d="M3313.33,2506.78h-36.78c-2.48,0-4.43,2.13-4.21,4.61l9.51,106.63c0.21,2.18,2.03,3.86,4.22,3.86h36.37 c2.48,0,4.43-2.13,4.22-4.6l-9.12-106.63C3317.35,2508.46,3315.52,2506.78,3313.33,2506.78z"/> <path class="st3" d="M2022.11,2122.3c-2.38,0-4.37,1.82-4.56,4.19l-6.43,77.48c-0.22,2.67,1.87,4.96,4.55,4.96h120.47 c2.52,0,4.58-2.05,4.58-4.58v-77.48c0-2.52-2.05-4.57-4.58-4.57H2022.11z"/> <path class="st3" d="M1858.5,1385.11h72.31c2.28,0,4.17-1.77,4.34-4.05l7.42-104.7c0.17-2.52-1.82-4.66-4.34-4.66h-72.34 c-2.28,0-4.17,1.77-4.34,4.05l-7.38,104.71C1853.99,1382.96,1855.98,1385.11,1858.5,1385.11z"/> <path class="st3" d="M1573.77,1617.63l57.59,2.65c3.61,0.16,6.67-2.6,6.88-6.21l4.29-75.69c0.21-3.66-2.62-6.77-6.26-6.95 l-58.03-2.76c-3.62-0.18-6.71,2.62-6.89,6.24l-3.83,75.81C1567.31,1614.36,1570.12,1617.46,1573.77,1617.63z"/> <path class="st3" d="M2465.26,2166.68l-2.51,68.3c-0.08,2.26,1.64,4.17,3.88,4.33l145.33,10.48c2.33,0.17,4.34-1.6,4.47-3.92 l4.08-67.53c0.13-2.28-1.58-4.25-3.86-4.43l-146.9-11.25C2467.39,2162.48,2465.35,2164.3,2465.26,2166.68z"/> <path class="st3" d="M2329.02,2148.36l-0.44,43c-0.01,2.15,1.57,3.95,3.7,4.21l100.2,11.88c2.42,0.29,4.56-1.54,4.68-3.97 l1.91-42.26c0.09-2.18-1.5-4.07-3.68-4.34l-101.68-12.62C2331.24,2143.94,2329.04,2145.87,2329.02,2148.36z"/> <path class="st3" d="M2140.71,1948.41c0-3.31-2.68-5.98-5.99-5.98H1967.2c-3.15,0-5.75,2.43-5.98,5.57l-7.32,105.46 c-0.25,3.45,2.5,6.4,5.96,6.4h174.85c3.31,0,5.99-2.68,5.99-5.98V1948.41z"/> <polygon class="st3" points="2579.41,2813.61 2691.22,2813.83 2659.77,2651.54 2597.5,2653.01 2610.82,2716.72 2559.08,2717.7 "/> <polygon class="st3" points="2521.12,2657.69 2445.71,2659.79 2464.72,2763.28 2381.49,2761.87 2360.01,2662.17 2273.71,2664.57 2305.03,2811.13 2551.53,2813.83 "/> <path class="st3" d="M2924.95,2811.13h114.51c2.55,0,4.55-2.17,4.36-4.71l-9.94-125.32c-0.18-2.27-2.08-4.02-4.36-4.02h-48.3 c-2.22,0-4.11-1.68-4.34-3.9l-14.79-136.58c-0.27-2.54,1.69-4.78,4.25-4.83l49.18-1.02c2.54-0.06,4.5-2.27,4.25-4.8l-10.89-109.22 c-0.22-2.24-2.11-3.94-4.34-3.94H2888.7c-2.58,0-4.59,2.22-4.36,4.77l36.25,389.6C2920.81,2809.41,2922.7,2811.13,2924.95,2811.13 z"/> </g> <path class="st4" d="M1397.4,2777.62c-104.87-352.29-151.38-719.37-137.67-1086.68l3.56-95.14c7.65-205.05-3.45-410.37-33.16-613.4 L1130.26,300H578.48l93.66,598.33c33.84,216.14,46.53,435.05,37.92,653.65l-4.68,118.63c-13.94,353.74,27.96,707.47,124.17,1048.15 l29.62,104.91c94.09,333.19,136.26,678.91,125,1024.95L972.73,4200h551.79l11.21-355.02 C1547.12,3484.08,1500.41,3123.69,1397.4,2777.62z"/> <path class="st5" d="M3428.75,2819.67l-25.77-431.34l-29.92-393.21c-0.94-12.35-10.23-22.45-22.47-24.41l-272.26-43.51l36.5-522.62 l27.07-371.34c0.99-13.54-8.32-25.69-21.66-28.25l-331.17-63.69c-1.27-0.16-2.54-0.31-3.81-0.47l-486.22-27.49l-430.14-6.8 L1907.51,300h-53.68l-74.52,1170.23l-247.06-16.05c-3.64-0.37-7.22,1.05-9.89,3.48c-2.69,2.46-4.26,5.91-4.37,9.55l-8.11,317.58 h-146.67c-17.47,0-34.65-4.62-49.75-13.39c-15.11-8.78-32.28-13.39-49.75-13.39H687.22c-17.47,0-34.65,4.62-49.75,13.39 c-15.11,8.78-32.28,13.39-49.75,13.39H300v53.57h287.71c17.47,0,34.65,4.62,49.75,13.39c15.11,8.78,32.28,13.39,49.75,13.39h576.49 c17.47,0,34.65-4.62,49.75-13.39c15.11-8.78,32.28-13.39,49.75-13.39h145.31l-9.34,365.92c-0.12,4.72,2.25,9.14,6.23,11.67 l217.76,137.91c-0.12,2.96,0.14,5.92,1.02,8.76l260.45,863.29l63.43,974.09h53.68l-32.4-497.56l317.65-36.56 c7.14-0.82,12.36-7.15,11.8-14.32L2367.43,3249l420.32,1.31l331.73,2.72c0.05,0,0.13,0,0.21,0c8.47,0,16.43-4,21.5-10.8 l274.96-369.72l783.85,54.42v-53.7L3428.75,2819.67z M3321.24,2020.29l27.11,356.07l-290.59-6.34l5.65-390.94L3321.24,2020.29z M3025.21,1918.72l-345-55.14l54.75-513.26l326.33,60.93L3025.21,1918.72z M3036.69,1974.81l-5.65,394.63l-375.58-8.19l20.7-444.06 L3036.69,1974.81z M2681.95,1594.81l-449.62-104.99l24.04-228.88l452.19,84.44L2681.95,1594.81z M2679.09,1621.67l-25.36,237.68 l-452.6-72.34l28.42-270.57L2679.09,1621.67z M2649.57,1912.94l-10.06,215.91L2195,2081.22l3.11-240.44L2649.57,1912.94z M2638.26,2155.65l-9.55,205.01l-437.2-9.54l3.15-243.07L2638.26,2155.65z M2194.33,2377.97l435.74,9.51l37.99,220.44 l-424.44,11.99L2194.33,2377.97z M2216.43,2620.68l-148.84,4.35l-77.96-251.53l177.22,3.87L2216.43,2620.68z M2672.67,2634.59 l34.12,197.94l-419.68,0.7l-38.05-186.68L2672.67,2634.59z M2657.38,2388.08l374.52,8.17l39.03,435.67l-336.94,0.56 L2657.38,2388.08z M2792.53,996.54l294.22,56.59l-23.56,331.25l-324.67-60.63L2792.53,996.54z M2765.92,993.39l-53.72,325.44 l-182.95-34.16l43.4-302.22L2765.92,993.39z M2307.38,967.44l238.42,13.5l-42.91,298.81l-242.81-45.34L2307.38,967.44z M1865.49,960.07l414.85,6.53l-46.98,265.14h-385.18L1865.49,960.07z M1846.48,1258.52h383.21l-23.9,227.57l-372.97-13.19 L1846.48,1258.52z M1831.13,1499.64l371.9,12.94l-28.58,272.21h-361.48L1831.13,1499.64z M1809.56,1838.36h361.79l-3.13,241.41 h-374.03L1809.56,1838.36z M1725,2323.29l-198.85-125.91l9.16-359.02h220.56L1725,2323.29z M1536.68,1784.79l7.73-302.99 l233.2,15.16l-18.32,287.83H1536.68z M1792.49,2106.55l375.39-0.07l-3.17,244.05l-387.23-8.46L1792.49,2106.55z M1782.07,2368.97 l179.33,3.92l83.63,269.8c1.75,5.6,6.93,9.42,12.79,9.42c0.13,0,0.26,0,0.39,0l163.67-4.77l37.89,185.94l-337.45,0.56 L1782.07,2368.97z M1930.4,2860.61l334.82-0.56l68.34,335.27l-302.48-0.94L1930.4,2860.61z M2371.1,3640.74l-303.48,34.92 l-27.86-427.69l300.82,0.94L2371.1,3640.74z M2360.92,3195.41l-68.35-335.4l418.84-0.71l58.16,337.38L2360.92,3195.41z M2796.8,3196.81l-58.2-337.55l334.72-0.56l30.53,340.64L2796.8,3196.81z M3128.1,3170.07l-27.92-311.42l259.83-0.43 L3128.1,3170.07z M3097.77,2831.88l-39-435.04l291.44,6.36l25.57,428.21L3097.77,2831.88z"/> <path class="st3" d="M300,300v632.14h330.81c166.43,0,301.34-134.92,301.34-301.35V300H300z"/> <g> <path class="st5" d="M556.95,486.83c5.36,0,9.7-4.34,9.7-9.7v-64.97l46.9,70.35c1.83,2.75,4.89,4.32,8.07,4.32 c0.93,0,1.88-0.14,2.81-0.41c4.09-1.24,6.88-5.01,6.88-9.29v-97.01c0-5.36-4.34-9.7-9.69-9.7c-5.36,0-9.7,4.34-9.7,9.7v64.96 l-46.9-70.35c-2.37-3.56-6.79-5.14-10.88-3.9c-4.09,1.24-6.89,5.01-6.89,9.29v97.01C547.24,482.48,551.59,486.83,556.95,486.83z"/> <path class="st5" d="M729.05,656.43L680,628.46c-4.21-2.4-9.57-0.94-11.97,3.27c-2.41,4.21-0.94,9.57,3.27,11.97l20.31,11.57 h-93.57v-93.57l11.57,20.31c1.61,2.84,4.58,4.42,7.63,4.42c1.48,0,2.97-0.37,4.34-1.15c4.21-2.4,5.68-7.76,3.27-11.97 l-27.98-49.06c-3.22-5.75-12.02-5.75-15.24,0l-27.96,49.06c-2.41,4.21-0.94,9.57,3.27,11.97c4.2,2.39,9.56,0.94,11.97-3.27 l11.57-20.31v93.57h-93.57l20.31-11.57c4.21-2.4,5.68-7.76,3.27-11.97c-2.39-4.21-7.76-5.66-11.97-3.27l-49.06,27.96 c-5.82,3.26-5.69,11.95,0,15.24l49.06,27.97c1.37,0.78,2.86,1.15,4.34,1.15c3.05,0,6.02-1.58,7.63-4.42 c2.41-4.21,0.94-9.57-3.27-11.97l-20.31-11.58h93.57v93.57l-11.57-20.31c-2.39-4.21-7.77-5.66-11.97-3.27 c-4.21,2.39-5.68,7.76-3.27,11.97l27.96,49.06c3.22,5.75,12.02,5.75,15.24,0l27.98-49.06c2.41-4.21,0.94-9.57-3.27-11.97 c-4.21-2.41-9.57-0.94-11.97,3.27l-11.57,20.31v-93.57h93.57L671.3,684.4c-4.21,2.39-5.68,7.76-3.27,11.97 c1.61,2.84,4.58,4.42,7.63,4.42c1.48,0,2.97-0.37,4.34-1.15l49.06-27.97c1.32-0.77,2.3-1.75,3.1-3.03 C734.67,664.54,733.31,658.81,729.05,656.43z"/> </g> </g> </svg>